<?xml version="1.0" encoding="iso-8859-1"?>
<!-- Generator: Adobe Illustrator 19.0.0, SVG Export Plug-In . SVG Version: 6.00 Build 0)  -->
<svg version="1.1" id="Layer_1" xmlns="http://www.w3.org/2000/svg" xmlns:xlink="http://www.w3.org/1999/xlink" x="0px" y="0px"
	 viewBox="0 0 502 502" style="enable-background:new 0 0 502 502;" xml:space="preserve">
<g>
	<circle style="fill:#535C61;" cx="251" cy="286.566" r="205.434"/>
	<rect x="196.855" y="10" style="fill:#535C61;" width="108.291" height="36.097"/>
	<circle style="fill:#E4DCD3;" cx="251" cy="286.566" r="164.029"/>
	<g>
		<path d="M420.24,153.233l12.837-12.837l12.57,12.57c1.953,1.953,4.512,2.929,7.071,2.929s5.118-0.977,7.071-2.929
			c3.905-3.905,3.905-10.237,0-14.142l-40.344-40.343c-3.906-3.905-10.236-3.905-14.143,0c-3.905,3.905-3.905,10.237,0,14.142
			l13.632,13.632l-11.835,11.835c-1.237-1.299-2.492-2.585-3.764-3.857C365.01,95.908,314.79,73.808,261,71.367v-15.27h44.146
			c5.522,0,10-4.477,10-10V10c0-5.523-4.478-10-10-10H196.854c-5.522,0-10,4.477-10,10v36.097c0,5.523,4.478,10,10,10H241v15.27
			c-53.79,2.441-104.01,24.541-142.335,62.865c-40.689,40.69-63.099,94.79-63.099,152.334s22.41,111.644,63.099,152.335
			C139.355,479.591,193.455,502,251,502s111.645-22.409,152.335-63.099c40.689-40.69,63.099-94.791,63.099-152.335
			C466.434,237.573,450.179,191.082,420.24,153.233z M206.854,20h88.291v16.097h-88.291V20L206.854,20z M251,482
			c-107.763,0-195.434-87.671-195.434-195.434c0-107.762,87.671-195.434,195.434-195.434s195.434,87.671,195.434,195.434
			C446.434,394.329,358.763,482,251,482z"/>
		<path d="M251,112.538c-95.96,0-174.028,78.069-174.028,174.028c0,95.96,78.068,174.029,174.028,174.029
			s174.028-78.069,174.028-174.029S346.96,112.538,251,112.538z M251,440.595c-84.932,0-154.028-69.097-154.028-154.029
			S166.068,132.538,251,132.538s154.028,69.097,154.028,154.028S335.932,440.595,251,440.595z"/>
		<path d="M251,200.656c-5.522,0-10,4.477-10,10v75.379c0,5.523,4.478,10,10,10s10-4.477,10-10v-75.379
			C261,205.133,256.522,200.656,251,200.656z"/>
		<path d="M251,387.511c-5.522,0-10,4.477-10,10v18.048c0,5.523,4.478,10,10,10s10-4.477,10-10v-18.048
			C261,391.988,256.522,387.511,251,387.511z"/>
		<path d="M324.613,370.343c-3.247-4.469-9.501-5.458-13.968-2.212c-4.468,3.246-5.458,9.5-2.212,13.968l10.609,14.602
			c1.957,2.693,5.006,4.123,8.098,4.123c2.038,0,4.096-0.621,5.87-1.911c4.468-3.246,5.458-9.5,2.212-13.968L324.613,370.343z"/>
		<path d="M377.275,316.55l-17.165-5.578c-5.254-1.706-10.896,1.167-12.602,6.42c-1.706,5.252,1.168,10.894,6.42,12.601
			l17.165,5.578c1.027,0.333,2.068,0.492,3.093,0.492c4.215,0,8.136-2.687,9.509-6.913
			C385.401,323.898,382.527,318.257,377.275,316.55z"/>
		<path d="M357.018,261.59c1.023,0,2.065-0.159,3.092-0.492l17.165-5.577c5.253-1.707,8.127-7.348,6.421-12.601
			c-1.706-5.251-7.347-8.127-12.601-6.42l-17.165,5.577c-5.253,1.707-8.127,7.348-6.421,12.601
			C348.882,258.903,352.802,261.59,357.018,261.59z"/>
		<path d="M333.011,173.158c-4.464-3.246-10.722-2.257-13.968,2.212l-10.609,14.602c-3.246,4.468-2.256,10.722,2.212,13.968
			c1.774,1.29,3.831,1.911,5.87,1.911c3.092,0,6.142-1.429,8.098-4.123l10.609-14.602
			C338.469,182.658,337.479,176.404,333.011,173.158z"/>
		<path d="M251,146.511c-5.522,0-10,4.477-10,10v18.048c0,5.523,4.478,10,10,10s10-4.477,10-10v-18.048
			C261,150.988,256.522,146.511,251,146.511z"/>
		<path d="M182.957,175.37c-3.248-4.469-9.502-5.458-13.968-2.212c-4.468,3.246-5.458,9.5-2.212,13.968l10.609,14.602
			c1.957,2.693,5.006,4.123,8.098,4.123c2.038,0,4.096-0.621,5.87-1.911c4.468-3.246,5.458-9.5,2.212-13.968L182.957,175.37z"/>
		<path d="M148.07,242.077l-17.165-5.577c-5.25-1.706-10.895,1.168-12.601,6.42c-1.706,5.253,1.168,10.895,6.421,12.601
			l17.165,5.577c1.026,0.333,2.067,0.492,3.092,0.492c4.215,0,8.136-2.687,9.509-6.913
			C156.197,249.425,153.323,243.783,148.07,242.077z"/>
		<path d="M141.89,310.972l-17.165,5.578c-5.252,1.707-8.126,7.349-6.42,12.601c1.373,4.226,5.293,6.913,9.509,6.913
			c1.023,0,2.065-0.159,3.093-0.492l17.165-5.578c5.252-1.707,8.126-7.348,6.42-12.601
			C152.785,312.141,147.148,309.265,141.89,310.972z"/>
		<path d="M191.354,368.131c-4.464-3.245-10.722-2.258-13.968,2.212l-10.609,14.602c-3.246,4.468-2.256,10.722,2.212,13.968
			c1.774,1.29,3.831,1.911,5.87,1.911c3.092,0,6.142-1.429,8.098-4.123l10.609-14.602
			C196.813,377.631,195.822,371.377,191.354,368.131z"/>
	</g>
</g>
<g>
</g>
<g>
</g>
<g>
</g>
<g>
</g>
<g>
</g>
<g>
</g>
<g>
</g>
<g>
</g>
<g>
</g>
<g>
</g>
<g>
</g>
<g>
</g>
<g>
</g>
<g>
</g>
<g>
</g>
</svg>
